<svg xmlns="http://www.w3.org/2000/svg" width="215.38mm" height="63.16mm" viewBox="-200 -200 1010.53 579.03">
  <defs>
    <style>
      .cls-1 {
        fill: #dc9521;
      }
    </style>
  </defs>
  <g id="레이어_2" data-name="레이어 2">
    <g id="레이어_1-2" data-name="레이어 1">
      <g>
      <rect x="-180" y="-120" width="970" height="419" rx="60" fill="#161415" stroke="#EDD9C0" stroke-width="36" paint-order="stroke fill"/>
        <path class="cls-1" d="M.23,173.91c3-7.24,3.42-15.06,4.84-22.63q9.79-51.9,19-103.88c.49-2.74,1.41-3.57,4.1-3.56,27.8.08,55.61,0,83.42.13,8.61.06,16.75,2.12,23.77,7.65,14.34,11.31,9.83,35.88.18,45.93-6.32,6.57-14.08,10.26-23,12.77,14.78,5.37,22.93,15.08,23.14,28.53.22,14.69-6,26-19.56,32.64-7.4,3.62-15.32,5.38-23.44,6.4-.92.12-2.06-.29-2.5,1-28.34,0-56.67-.12-85,.12C.89,179.07-.62,178.05.23,173.91Zm62.32-23.3c3.15-.17,6.32-.23,9.45-.53,9.17-.9,14-5.87,14.87-15,.52-5.78-2.61-10-8.32-11.14-6.43-1.29-12.94-.55-19.41-.79-2.2-.08-2.78,1-3.06,3-.65,4.6-1.45,9.19-2.31,13.75C51.75,150.46,51.72,150.46,62.55,150.61Zm10-55.93c3.15-.18,6.32-.22,9.46-.58,8.38-.95,13.66-7.48,13-15.88-.51-6.39-4.4-9.06-13.59-9-5,.06-11.51-2.11-14.46.85s-2.2,9.35-2.91,14.27C62.6,94.52,62.64,94.52,72.59,94.68Z"/>
        <path class="cls-1" d="M325.46,115.35C319.22,125.18,313.64,134,308,142.8c-.94,1.48-1.55,3.33-3.91,3.33-15.4,0-30.8,0-47.29,0L283.59,112c4-5.1,7.87-10.32,12.08-15.25,2.06-2.41,2-4.24.66-7C289.43,75.16,282.79,60.52,276,45.8c1.52-1.17,3-.71,4.41-.71,13.65,0,27.31.15,40.95-.13,4-.09,5.46,1.26,6.36,4.92,1.78,7.22,4,14.34,6.41,22.65,5-7.89,9.8-14.72,13.77-22,2.47-4.52,5.55-5.56,10.36-5.37,10.81.42,21.63.22,32.45.27h4.84c.27,2.18-1.05,3.15-1.85,4.29-9.43,13.49-18.85,27-28.4,40.38a6,6,0,0,0-.72,6.78c6.57,14.87,12.87,29.87,19.44,44.75,1.53,3.46,1.13,4.44-2.87,4.39-14-.14-28,0-41.94.17-3,.05-4.38-.89-5.23-3.78C331.41,133.69,328.54,125.06,325.46,115.35Z"/>
        <path class="cls-1" d="M495,115.68c-1.12,8.28-2.21,16.31-3.3,24.33-.26,1.94-1.89,2.24-3.32,2.47-20.21,3.28-40.46,6.49-61,3.54-18.21-2.62-30.08-14.53-32.13-32.94-2.69-24.22,7.16-50.77,32.28-63.55,18.57-9.45,38.33-9.71,57.61-2.6,15.84,5.83,21.51,19.24,21.88,35.31a89.24,89.24,0,0,1-2,20.79c-.66,3.06-2,3.93-5,3.9-18.65-.13-37.3-.07-55.95-.06-5.42,0-5.75.49-3.87,5.58a14.24,14.24,0,0,0,12.63,8.88A129.18,129.18,0,0,0,495,115.68ZM455.47,86.14c3.55-.75,9.38,2.23,11.91-1.32,2.32-3.25.47-8.69-1.11-12.94C463.69,65,456.82,63,451,67.46c-3.41,2.59-5.45,6.2-6.93,10.14-3.21,8.54-3.2,8.55,5.68,8.54Z"/>
        <path class="cls-1" d="M253.87,116.17c-1,7.84-2,15.06-3,22.29-.3,2.2-.72,4.09-3.62,4.54-18.74,2.9-37.44,5.6-56.54,4.19-24.82-1.84-36.91-18.32-37-40-.11-23.37,8.79-43.07,29.6-55.34,19.58-11.55,40.72-11.87,61.56-4.05,14.31,5.36,20,17.82,21,32.4A82.22,82.22,0,0,1,264.22,102c-.75,3.76-2,5.42-6.4,5.34-18.31-.34-36.62-.15-54.94-.14-5.22,0-5.69.74-3.77,5.73a13.89,13.89,0,0,0,13,9.06A133.89,133.89,0,0,0,253.87,116.17Zm-40.3-29.34c3.16,0,6.33-.18,9.46.06,3,.23,4-1.22,3.79-3.76-.28-3.62-.25-7.3-1.65-10.76-2.93-7.22-10.23-9-16.12-3.8-4.6,4-6.44,9.53-7.85,15.22-.5,2,0,3.15,2.4,3.07C206.92,86.74,210.25,86.83,213.57,86.83Z"/>
        <path class="cls-1" d="M534.09,145c-6.82,0-13.65-.08-20.47,0-2.66,0-3.86-.29-3.29-3.58Q522.38,72.72,534.1,4C534.62.92,535.86,0,539,0c13,.18,26,.28,39,0,4.3-.1,4.51,1.57,3.93,4.91q-5.3,30.44-10.41,60.89C567.23,90.52,563,115.22,559,140c-.63,3.86-1.88,5.29-5.9,5.06C546.76,144.69,540.42,145,534.09,145Z"/>
        <path class="cls-1" d="M573.06,125.87A18.61,18.61,0,0,1,591.47,107a18.8,18.8,0,0,1,19.06,18.83,19,19,0,0,1-18.76,18.73A18.82,18.82,0,0,1,573.06,125.87ZM582.93,114c-2.29-1.19-2.78,1.12-3.62,2.13a15.5,15.5,0,0,0,0,19.36A15.71,15.71,0,0,0,598,140.17c6.77-3,10.64-10.14,9.25-17-1.57-7.72-7.34-13-14.65-13.29-4.83-.23-8,1.1-9.76,4.11Z"/>
        <path class="cls-1" d="M582.87,114c3.63.23,7.27.37,10.89.74,2.22.22,4.29,1,4.93,3.52s.25,4.74-2.16,6.06c-1.93,1-1.58,2.08-.47,3.47,1.72,2.18,3.06,4.66,6.39,6.42-8.26,2.52-8.22-5.6-12.58-8-.39,3.07-1.21,5.87,2.66,8.39h-8.62c2.9-6.91,3.8-13.86-1-20.61Zm8.08,2.82c-2.16,0-1.23,2.18-1.37,3.63-.15,1.67.23,3,2.41,2.75,1.91-.22,3.18-1.13,3.16-3.14C595.13,117.81,593.71,116.87,591,116.83Z"/>
      </g>
    </g>
  </g>
</svg>
