<svg fill="white" version="1.1" id="Layer_1" xmlns="http://www.w3.org/2000/svg" xmlns:xlink="http://www.w3.org/1999/xlink" x="0px" y="0px" width="378px" height="84px" viewBox="0 0 378 84" enable-background="new 0 0 378 84" xml:space="preserve">
<polygon points="0.561,14.318 30.733,57.113 60.207,14.318 60.226,82.52 52.571,82.52 52.498,38.795 52.319,38.795 30.338,70.197 8.52,38.879 8.34,38.879 8.379,82.52 0.584,82.52 "></polygon>
<path d="M107.065,57.533h-22.99l11.633-25.842L107.065,57.533z M110.042,64.209l8.021,18.311h8.386L95.885,14.918L64.509,82.52 h8.296l8.205-18.311H110.042L110.042,64.209z"></path>
<g>
    <g>
        <g>
            <defs>
                <rect id="SVGID_1_" x="-128.589" y="-332.027" width="595.275" height="841.891"></rect>
            </defs>
            <clipPath id="SVGID_2_">
                <use xlink:href="#SVGID_1_" overflow="visible"></use>
            </clipPath>
            <path clip-path="url(#SVGID_2_)" d="M139.163,24.672h2.252c9.106,0,17.312,1.031,17.312,11.639 c0,10.012-8.649,11.549-17.221,11.549h-2.343V24.672L139.163,24.672z M139.163,54.197h1.891l22.813,28.32h9.289l-23.896-28.922 c10.459-0.854,17.04-7.875,17.04-17.797c0-14.545-11.992-17.799-24.885-17.799h-9.825v64.518h7.573V54.197L139.163,54.197z"></path>
        </g>
    </g>
    <g>
        <g>
            <defs>
                <rect id="SVGID_3_" x="-128.589" y="-332.027" width="595.275" height="841.891"></rect>
            </defs>
            <clipPath id="SVGID_4_">
                <use xlink:href="#SVGID_3_" overflow="visible"></use>
            </clipPath>
            <path clip-path="url(#SVGID_4_)" d="M185.593,56.416c0,4.789-0.173,10.273,2.979,14.381c2.969,3.936,8.748,6.152,13.705,6.152 c4.863,0,10.188-2.135,13.34-5.729c3.608-4.107,3.336-9.75,3.336-14.805V18h7.578v40.387c0,7.014-0.547,12.576-5.951,17.885 c-4.69,4.789-11.451,7.355-18.304,7.355c-6.403,0-12.985-2.309-17.586-6.584c-5.948-5.396-6.67-11.293-6.67-18.656V18h7.572 V56.416L185.593,56.416z"></path>
        </g>
    </g>
    <g>
        <g>
            <defs>
                <rect id="SVGID_5_" x="-128.589" y="-332.027" width="595.275" height="841.891"></rect>
            </defs>
            <clipPath id="SVGID_6_">
                <use xlink:href="#SVGID_5_" overflow="visible"></use>
            </clipPath>
            <path clip-path="url(#SVGID_6_)" d="M266.288,30.576c-2.705-4.447-5.951-7.012-11.719-7.012c-6.039,0-11.271,4.109-11.271,10.016 c0,5.555,6.04,8.123,10.643,10.098l4.503,1.881c8.84,3.674,16.319,7.865,16.319,18.137c0,11.293-9.558,19.934-21.37,19.934 c-10.906,0-19.023-6.678-21.184-16.682l7.388-1.971c0.995,6.588,6.317,11.975,13.616,11.975c7.308,0,13.976-5.303,13.976-12.576 c0-7.523-6.215-10.094-12.528-12.83l-4.146-1.715c-7.935-3.418-14.789-7.266-14.789-16.508c0-10.012,8.921-16.436,19.026-16.436 c7.57,0,13.968,3.68,17.576,10.018L266.288,30.576z"></path>
        </g>
    </g>
    <g>
        <g>
            <defs>
                <rect id="SVGID_7_" x="-128.589" y="-332.027" width="595.275" height="841.891"></rect>
            </defs>
            <clipPath id="SVGID_8_">
                <use xlink:href="#SVGID_7_" overflow="visible"></use>
            </clipPath>
            <path clip-path="url(#SVGID_8_)" d="M368.198,30.576c-2.701-4.447-5.957-7.012-11.719-7.012c-6.048,0-11.268,4.109-11.268,10.016 c0,5.555,6.038,8.123,10.633,10.098l4.51,1.881c8.831,3.674,16.319,7.865,16.319,18.137c0,11.293-9.563,19.934-21.367,19.934 c-10.917,0-19.027-6.678-21.188-16.682l7.394-1.971c0.993,6.588,6.306,11.975,13.613,11.975c7.301,0,13.977-5.303,13.977-12.576 c0-7.523-6.221-10.094-12.535-12.83l-4.146-1.715c-7.932-3.418-14.789-7.266-14.789-16.508c0-10.012,8.932-16.436,19.025-16.436 c7.573,0,13.979,3.68,17.578,10.018L368.198,30.576z"></path>
        </g>
    </g>
    <g>
        <g>
            <defs>
                <rect id="SVGID_9_" x="-128.589" y="-332.027" width="595.275" height="841.891"></rect>
            </defs>
            <clipPath id="SVGID_10_">
                <use xlink:href="#SVGID_9_" overflow="visible"></use>
            </clipPath>
            <path class="point" clip-path="url(#SVGID_10_)" d="M290.735,7.582c0,2.848-2.32,5.16-5.173,5.16 c-2.851,0-5.169-2.313-5.169-5.16c0-2.859,2.318-5.172,5.169-5.172C288.415,2.41,290.735,4.723,290.735,7.582"></path>
        </g>
    </g>
    <g>
        <g>
            <defs>
                <rect id="SVGID_11_" x="-128.589" y="-332.027" width="595.275" height="841.891"></rect>
            </defs>
            <clipPath id="SVGID_12_">
                <use xlink:href="#SVGID_11_" overflow="visible"></use>
            </clipPath>
            <path class="point" clip-path="url(#SVGID_12_)" d="M331.209,7.582c0,2.848-2.313,5.16-5.161,5.16 c-2.857,0-5.169-2.313-5.169-5.16c0-2.859,2.312-5.172,5.169-5.172C328.898,2.41,331.209,4.723,331.209,7.582"></path>
        </g>
    </g>
    <g>
        <g>
            <defs>
                <rect id="SVGID_13_" x="-128.589" y="-332.027" width="595.275" height="841.891"></rect>
            </defs>
            <clipPath id="SVGID_14_">
                <use xlink:href="#SVGID_13_" overflow="visible"></use>
            </clipPath>
            <path class="point" clip-path="url(#SVGID_14_)" d="M322.651,18.002v19.791c0,5.049,0.271,10.689-3.336,14.797 c-3.159,3.596-8.473,5.73-13.347,5.73c-4.958,0-10.728-2.213-13.696-6.154c-3.158-4.102-2.979-9.582-2.979-14.373V18.002h-7.574 v21.754c0,7.361,0.719,13.268,6.671,18.654c3.608,3.359,8.439,5.482,13.438,6.254V82.52h7.584V64.766 c5.622-0.715,10.966-3.141,14.869-7.125c5.404-5.303,5.942-10.865,5.942-17.885V18.002H322.651L322.651,18.002z"></path>
        </g>
    </g>
</g>
</svg>
