<svg xmlns="http://www.w3.org/2000/svg" width="95.72mm" height="42.5mm" viewBox="-20 -20 311.33 160.47">
  <defs>
    <style>
      .cls-1 {
        fill: #d62a2a;
      }

      .cls-2 {
        fill: #f4c120;
      }

      .cls-3 {
        fill: #fefbfb;
      }
    </style>
  </defs>
  <g id="레이어_2" data-name="레이어 2">
    <g id="레이어_1-2" data-name="레이어 1">
      <g>
        <ellipse class="cls-1" cx="135.67" cy="60.24" rx="135.67" ry="60.24" stroke="#EDD9C0" stroke-width="22" paint-order="stroke fill"/>
        <g>
          <path class="cls-1" d="M3.74,66.61V53.74C11,36.19,25.59,26.77,42,19.34c1.8-.82,3.63-1.6,5.5-2.26C100.56-1.74,154.24-2.37,208.32,11.94c17.08,4.51,33.26,11.32,46.52,23.44,17.07,15.62,17,33.9,0,49.61-9,8.32-19.61,14.14-31.05,18.21-54.2,19.26-109.08,20-164.07,4.12C36.45,100.61,14.47,91,3.74,66.61Zm131.85,39.52c7.65.42,15.25-.39,22.83-1C173.8,104,189,101.74,203.6,96.43a49.3,49.3,0,0,0,11.52-5.71c1-.66,2.16-1.47,1.42-2.75-.57-1-1.77-.44-2.72-.15-2.85.87-5.67,1.83-8.56,2.55-22.19,5.53-44.87,6.41-67.56,6.36-27,0-54-.42-80.12-8.85-1-.33-2.32-1.16-2.92.45-.41,1.1.62,1.77,1.43,2.33a59.32,59.32,0,0,0,17.14,7.65C93.59,104.3,114.52,105.8,135.59,106.13ZM90.29,42.88c-4.82-13-21.52-17.22-31.67-8.35-5.38,4.7-5.5,12-.2,16.9,3.46,3.18,7.84,4.88,11.93,7,2.64,1.39,5.38,2.65,7.28,5,3.18,4,1.66,8.23-3.36,9.24s-8.69-.49-11.28-5c-1.43-2.49-7.78-4.2-8.72-2.51-1.34,2.43.49,4.75,1.89,6.6,5.6,7.38,13.55,7.57,21.64,6.2C85,76.76,89.49,72.49,90.26,66.92c.94-6.79-3.52-10.21-8.56-13.13-4.29-2.48-8.77-4.64-13-7.23-2.65-1.63-4.57-4.06-3.27-7.47,1.34-3.56,4.54-4.06,7.8-3.92,2.94.12,5.67,1.2,7.11,3.86C82.54,43.08,85.79,43.93,90.29,42.88Zm68.49,35.64a21.71,21.71,0,0,0,11.91-2.82c7.74-4.59,8.47-13.62,1.55-19.3C168.89,53.65,164.89,52,161.1,50c-2.63-1.4-5.37-2.64-7.45-4.83-3.47-3.65-2.3-8.16,2.56-9.54,4.64-1.32,8.59-.12,11.22,4a7,7,0,0,0,6,3.7c3.69.25,3.84-1,2.36-3.85-4-7.71-12.95-11.08-23.24-8.51-5.67,1.42-10.14,4.39-11.19,10.53s2.7,9.89,7.55,12.69c4,2.3,8.25,4.2,12.19,6.61,3.21,2,6.28,4.68,4.25,8.84s-6.23,3.74-10.07,2.92a7.65,7.65,0,0,1-5.19-4.27,6.44,6.44,0,0,0-5.58-3.49c-3.58-.35-4.9.51-3.3,4.23C143.81,75.18,149.86,78.57,158.78,78.52Zm-20.3-.68c-3.27-7.54-6.27-14.46-9.29-21.36-3.23-7.4-6.52-14.77-9.7-22.18-1.08-2.51-3-3.16-5.52-3.33-2.81-.19-3.14,1.77-3.88,3.56-1.89,4.57-3.82,9.11-5.72,13.68-4,9.67-8,19.34-12.1,29.13,7.74,1,8,.85,10.87-5.75.88-2,1-5.39,3.18-5.71a42.9,42.9,0,0,1,13.85,0c2.69.5,3,4.44,3.88,7,1.39,4,3.85,5.43,7.9,5C133.88,77.67,135.86,77.84,138.48,77.84Zm44.93-23.6h0c0,4.95,0,9.9,0,14.85,0,7.56,1.18,8.73,8.57,8.74q9.94,0,19.91,0a14.16,14.16,0,0,0,3.45-.28,3,3,0,0,0,2.37-3.33c-.18-2.1-1.95-1.32-3.09-1.36-2.65-.11-5.31,0-8,0-12.17,0-12,0-12.11-12,0-3.37.74-4.73,4.35-4.46,4.12.31,8.29.12,12.44,0,2,0,3.69-1,3.79-3.17.12-2.89-2.31-1.61-3.67-1.75a59.42,59.42,0,0,0-6,0c-11.08,0-11,0-10.94-11.25,0-3.21.82-4.36,4.16-4.19,5.13.26,10.28.08,15.43,0,2.13,0,3.52-1.21,3.55-3.33.05-2.55-2.11-1.54-3.31-1.55-8.13-.09-16.26,0-24.39-.05-4.28,0-6.49,2.14-6.54,6.34C183.35,43,183.41,48.63,183.41,54.24Z"/>
          <path class="cls-2" d="M135.59,106.13c-21.07-.33-42-1.83-62.36-7.82a59.32,59.32,0,0,1-17.14-7.65c-.81-.56-1.84-1.23-1.43-2.33.6-1.61,1.9-.78,2.92-.45,26.09,8.43,53.12,8.8,80.12,8.85,22.69,0,45.37-.83,67.56-6.36,2.89-.72,5.71-1.68,8.56-2.55,1-.29,2.15-.83,2.72.15.74,1.28-.46,2.09-1.42,2.75a49.3,49.3,0,0,1-11.52,5.71c-14.59,5.31-29.8,7.54-45.18,8.73C150.84,105.74,143.24,106.55,135.59,106.13Z"/>
          <path class="cls-3" d="M90.29,42.88c-4.5,1-7.75.2-9.94-3.85-1.44-2.66-4.17-3.74-7.11-3.86-3.26-.14-6.46.36-7.8,3.92-1.3,3.41.62,5.84,3.27,7.47,4.22,2.59,8.7,4.75,13,7.23,5,2.92,9.5,6.34,8.56,13.13C89.49,72.49,85,76.76,77.8,78c-8.09,1.37-16,1.18-21.64-6.2-1.4-1.85-3.23-4.17-1.89-6.6.94-1.69,7.29,0,8.72,2.51,2.59,4.55,6.36,6,11.28,5s6.54-5.23,3.36-9.24c-1.9-2.39-4.64-3.65-7.28-5-4.09-2.14-8.47-3.84-11.93-7-5.3-4.87-5.18-12.2.2-16.9C68.77,25.66,85.47,29.87,90.29,42.88Z"/>
          <path class="cls-3" d="M158.78,78.53c-8.92,0-15-3.35-17.6-9.5-1.6-3.72-.28-4.58,3.3-4.23a6.44,6.44,0,0,1,5.58,3.49,7.65,7.65,0,0,0,5.19,4.27c3.84.82,8,1.25,10.07-2.92s-1-6.89-4.25-8.84c-3.94-2.41-8.18-4.31-12.19-6.61-4.85-2.8-8.61-6.51-7.55-12.69s5.52-9.11,11.19-10.53c10.29-2.57,19.22.8,23.24,8.51,1.48,2.85,1.33,4.1-2.36,3.85a7,7,0,0,1-6-3.7c-2.63-4.15-6.58-5.35-11.22-4-4.86,1.38-6,5.89-2.56,9.54,2.08,2.19,4.82,3.43,7.45,4.83,3.79,2,7.79,3.68,11.14,6.43,6.92,5.68,6.19,14.71-1.55,19.3A21.8,21.8,0,0,1,158.78,78.53Z"/>
          <path class="cls-3" d="M138.48,77.84c-2.62,0-4.6-.17-6.53,0-4,.43-6.51-1-7.9-5-.89-2.52-1.19-6.46-3.88-7a42.9,42.9,0,0,0-13.85,0c-2.21.32-2.3,3.67-3.18,5.71-2.85,6.6-3.13,6.8-10.87,5.75,4.06-9.79,8.07-19.46,12.1-29.13,1.9-4.57,3.83-9.11,5.72-13.68.74-1.79,1.07-3.75,3.88-3.56,2.56.17,4.44.82,5.52,3.33,3.18,7.41,6.47,14.78,9.7,22.18C132.21,63.38,135.21,70.3,138.48,77.84ZM118.53,60.3c-1.89-4.28-3-8.28-5.64-12-.63,1.4-1.12,2.42-1.56,3.46C107.38,61.13,107.38,61.13,118.53,60.3Z"/>
          <path class="cls-3" d="M183.41,54.24c0-5.61-.06-11.22,0-16.83,0-4.2,2.26-6.35,6.54-6.34,8.13,0,16.26,0,24.39.05,1.2,0,3.36-1,3.31,1.55,0,2.12-1.42,3.31-3.55,3.33-5.15.06-10.3.24-15.43,0-3.34-.17-4.15,1-4.16,4.19,0,11.25-.14,11.25,10.94,11.25a59.42,59.42,0,0,1,6,0c1.36.14,3.79-1.14,3.67,1.75-.1,2.14-1.77,3.13-3.79,3.17-4.15.09-8.32.28-12.44,0-3.61-.27-4.37,1.09-4.35,4.46.07,12-.06,12,12.11,12,2.65,0,5.31-.07,8,0,1.14,0,2.91-.74,3.09,1.36a3,3,0,0,1-2.37,3.33,14.16,14.16,0,0,1-3.45.28q-10,0-19.91,0c-7.39,0-8.54-1.18-8.57-8.74,0-5,0-9.9,0-14.85Z"/>
          <path class="cls-1" d="M118.53,60.3c-11.15.83-11.15.83-7.2-8.53.44-1,.93-2.06,1.56-3.46C115.5,52,116.64,56,118.53,60.3Z"/>
        </g>
      </g>
    </g>
  </g>
</svg>
