<svg xmlns="http://www.w3.org/2000/svg" width="71.79mm" height="78.43mm" viewBox="0 0 203.51 222.34">
  <defs>
    <style>
      .cls-1 {
        fill: #f3eadb;
      }

      .cls-2 {
        fill: #f5eee0;
      }

      .cls-3 {
        fill: #f6eee1;
      }

      .cls-4 {
        fill: #f8f0e7;
      }

      .cls-5 {
        fill: #f9f4ee;
      }

      .cls-6 {
        fill: #faf6f0;
      }

      .cls-7 {
        fill: #fdfbf8;
      }

      .cls-8 {
        fill: #f08338;
      }

      .cls-9 {
        fill: #ca291d;
      }

      .cls-10 {
        fill: #ca2a1d;
      }

      .cls-11 {
        fill: #eed4c1;
      }

      .cls-12 {
        fill: #f0dccb;
      }

      .cls-13 {
        fill: #f2e2d2;
      }

      .cls-14 {
        fill: #f0ddcc;
      }
    </style>
  </defs>
  <g id="레이어_2" data-name="레이어 2">
    <g id="레이어_1-2" data-name="레이어 1">
      <g>
        <path class="cls-1" d="M131.25,222.34h-3c-2.14-1-4.41-.27-6.61-.51H70.91c-13.39-.36-26.78-.61-39.7-4.93-9.39-3.14-17.9-7.56-24.76-15C2.51,197.63.15,193.06.5,187.21q0-62.36,0-124.68c0-1.79.47-3.65-.48-5.36v-2C5.31,31.7,22.76,19.63,42.76,10.27A109.2,109.2,0,0,1,87.48.3C102.38,0,117.3-.62,132,1.79,152.33,5.12,170.87,13,186.22,27.07,196.94,36.89,203.7,48.46,203.51,64c-.51,39.77-.3,79.55-.08,119.33,0,9.07-3.36,16-10,21.74-11.64,10.07-25.7,14-40.57,15.75C145.71,221.66,138.43,221.29,131.25,222.34Z"/>
        <path class="cls-2" d="M1,188.53l-1,0V57.17c1.53,1.5,1,3.43,1,5.18Q1,125.44,1,188.53Z"/>
        <path class="cls-3" d="M84.51,221.35h26.86q.54.33.36.66t-.36.33H84.52c-.36-.22-.49-.44-.37-.66S84.39,221.35,84.51,221.35Z"/>
        <path class="cls-4" d="M111.37,222.34v-1h10.94q.54.33.36.66c-.12.22-.24.33-.37.33Z"/>
        <path class="cls-5" d="M84.51,221.35c0,.33,0,.66,0,1h-9c-.36-.22-.49-.44-.37-.66s.24-.33.37-.33Z"/>
        <path class="cls-6" d="M122.3,222.34c0-.33,0-.66,0-1,2,.26,4.2-.74,6,1Z"/>
        <path class="cls-7" d="M75.57,221.35v1h-5v-1Z"/>
        <path class="cls-8" d="M101.87,68H20.35c-8.51,0-10.3-2.32-8-10.66,2.9-10.56,9.84-18.27,18.19-24.82C46,20.36,64.13,14.87,83.31,12.67c23.51-2.7,46.65-1,68.86,7.86C166,26,178,34,186.58,46.45a31.37,31.37,0,0,1,5.59,13.66c.84,6.12-.58,7.85-6.79,7.86Q143.64,68,101.87,68Z"/>
        <path class="cls-8" d="M102.5,178.62h82.43c7.32,0,9.49,3.51,6,10-3.63,6.72-9.64,10.81-16.45,13.73-12.19,5.22-25.19,6.91-38.22,7.74-27.94,1.78-55.89,2.05-83.72-1.74-10-1.36-19.84-3.65-28.66-9C19.11,196.51,15,193,12.69,187.75c-2.73-6.15-.8-9.12,5.89-9.12Q60.54,178.6,102.5,178.62Z"/>
        <path class="cls-9" d="M120.5,140.56c1.08-5,.21-9.9.56-14.73.42-5.73,3.31-8.9,8.4-9.21,5.31-.33,9.61,3,9.7,8.32.23,13.07.15,26.15,0,39.22a8.19,8.19,0,0,1-6.13,8.16c-4.49,1.3-8.73.25-11.27-4-2.88-4.81-5.31-9.88-8-14.83-.84-1.56-1.75-3.08-2.63-4.62-2,.75-1.48,2.24-1.51,3.43-.11,4.13.09,8.28-.24,12.4a8.38,8.38,0,0,1-8.49,8c-5,.18-9.21-2.65-9.34-7.56-.34-13.56-.29-27.14,0-40.7a7.81,7.81,0,0,1,6.23-7.5c4.6-1.17,8.68,0,11.17,4.26,2.93,5,5.49,10.17,8.24,15.25C118,137.84,118.2,139.66,120.5,140.56Z"/>
        <path class="cls-9" d="M30.69,152.65c0,3.78.09,6.69,0,9.58-.26,6.88-3.83,10.61-9.89,10.48-5.8-.12-8.94-3.74-9-10.68q-.12-17.39,0-34.77c0-6.83,3.28-10.54,9-10.66,6-.12,9.45,3.74,9.92,10.56.15,2.13-1.44,5.47,1.08,6.12,2,.51,3.21-2.89,4.55-4.7,1.86-2.52,3.32-5.34,5.18-7.86,3.23-4.34,8.34-5.36,12.67-2.73s5.75,7.52,3.21,12.54a31.27,31.27,0,0,1-7.82,9.52c-2.23,1.92-2.49,3.67-.58,5.88q4.22,4.88,8.32,9.86c4.11,5,4.07,10.28-.07,14.18s-9.73,3.73-14.28-.41c-3.6-3.26-5.94-7.47-8.34-11.63C33.78,156.4,33.46,154.49,30.69,152.65Z"/>
        <path class="cls-9" d="M144.19,144.46c-.32-22.18,17.47-32.05,37.33-26.31a17.43,17.43,0,0,1,5.63,3,7.46,7.46,0,0,1,2.28,9.76c-1.88,4-5.34,4.66-9.24,3.76-1.42-.33-2.69-1.28-4.09-1.74-6.4-2.08-12.24.84-14.25,7.05-2.42,7.49.55,14.94,6.73,17.06a9.29,9.29,0,0,0,4.39.47c1.39-.19,2.77-.84,2.82-2.33s-1.44-1.42-2.56-1.7c-5.86-1.47-7.76-3.64-7.28-8.15.43-4.12,3.53-6.38,9-6.59,8.93-.33,14.6,2.41,16.61,8,2.59,7.24-.51,17.2-7.16,21.68-8.27,5.56-17.16,5.54-26,1.58s-13-11.37-14.22-20.66A37.44,37.44,0,0,1,144.19,144.46Z"/>
        <path class="cls-9" d="M84.51,144.84c0,5.81.12,11.61,0,17.41-.16,6.65-4,10.49-10,10.47-5.88,0-9.73-3.68-9.84-10.1q-.31-17.9,0-35.8c.1-6.44,3.92-10.18,9.73-10.23,6.06,0,10,3.85,10.18,10.35C84.64,132.91,84.52,138.88,84.51,144.84Z"/>
        <path class="cls-9" d="M103.12,93.89c0-14.21,10.11-22.25,23.6-18.74a16,16,0,0,1,4,1.83c3,1.76,4.23,4.34,2.49,7.53-1.63,3-4.37,3.38-7.27,2-3.73-1.83-7.18-1.79-9.73,1.73-2.69,3.72-2.4,7.8-.18,11.69a6,6,0,0,0,4.94,2.93c1.22.11,2.56,0,3-1.27.65-2-1.21-1.43-2.14-1.69-2.72-.75-4.53-2.44-4.22-5.3s2.34-4.44,5.45-4.69c6.9-.54,11.36,2.06,12.15,7.34A13.79,13.79,0,0,1,124,112.88C111.73,114.84,103.11,107,103.12,93.89Z"/>
        <path class="cls-10" d="M86.23,99.7c-1.14,2.83-.42,5.31-.66,7.7-.32,3.15-1.69,5.31-5.11,5.6-3.62.31-5.85-1.42-6.08-5a225.66,225.66,0,0,1,0-28.25c.19-3.08,2.26-4.74,5.28-4.87a84,84,0,0,1,9.91.06c10,.8,14.9,10.55,9.07,18.69-2,2.78-1.66,4.56,0,6.83.5.66,1,1.31,1.48,2,3.16,4.51,3,7.72-.47,9.76-3.32,2-6.83.57-9.31-3.81-.81-1.41-1.26-3-1.95-4.52C87.8,102.64,88.07,101,86.23,99.7Z"/>
        <path class="cls-10" d="M41.7,91.15c0-3.15,0-6.3,0-9.45-.08-4,1.4-7,5.81-7s5.71,3.21,5.72,7.11c0,5.14,0,10.28,0,15.42,0,2.22-.52,5.31,2.74,5.42,3.48.12,2.76-3,2.78-5.2.06-5.31,0-10.61,0-15.91.06-4,1.61-7,6.05-6.85,4.19.09,5.61,3.09,5.66,6.77.09,6.46.26,12.94-.08,19.38C70,109,64.24,113.37,54.91,113c-8.26-.3-13-4.94-13.21-12.93C41.64,97.12,41.69,94.13,41.7,91.15Z"/>
        <path class="cls-9" d="M176.5,99.86c-1.34,2.49-.54,4.82-.78,7-.37,3.48-1.64,6.1-5.69,6.12s-5.79-2.39-5.86-5.94c-.16-8.77-.13-17.55,0-26.33,0-2.63,1.32-5.14,4.09-5.53,5.06-.71,10.28-1.19,15.22.61,7.34,2.68,10.17,10.93,5.39,17.46-2.55,3.49-1.48,5.55.48,8.15.4.53.82,1,1.2,1.58,2.1,3,3,6-.17,8.8-2.81,2.45-6.63,1.5-9.3-2.28-1-1.45-1.5-3.29-2.43-4.84S178.47,101.33,176.5,99.86Z"/>
        <path class="cls-9" d="M11.65,93.49c0-4.13,0-8.26,0-12.39.05-4,2.05-6.19,6.07-6.27a90.59,90.59,0,0,1,9.89.18c7.77.73,11.83,7.55,8.61,14.66-.91,2-1.08,3.06.39,5,4.88,6.45,2,15-5.72,17.49a11.27,11.27,0,0,1-3.37.67c-15.17.14-16.37,1.27-15.9-14.39C11.68,96.8,11.64,95.14,11.65,93.49Z"/>
        <path class="cls-9" d="M138.06,93.74q0-6.19,0-12.4c0-4.28,2.25-6.4,6.41-6.5,3.8-.08,7.6,0,11.4,0,3.53,0,5.72,1.82,5.63,5.42-.08,3.35-2.21,5-5.53,5a4.08,4.08,0,0,0-1,0c-1.95.59-5.53-1.51-5.56,2,0,3.25,3.35,1.31,5.17,1.63,2.78.49,4.76,1.57,4.81,4.61s-1.68,4.52-4.63,4.65c-1,0-2,0-3,.06-1.43,0-2.67.29-2.6,2.16s1.45,1.45,2.52,1.52a42.46,42.46,0,0,1,5.43.29,4.92,4.92,0,0,1,4.36,5.21c-.05,3-1.74,5.13-4.8,5.3a102.51,102.51,0,0,1-12.88,0c-3.54-.24-5.74-2.28-5.73-6.13,0-4.3,0-8.6,0-12.9Z"/>
        <path class="cls-11" d="M87.36,84.31c2,.39,3.29,1.48,3.08,3.67a3,3,0,0,1-3.2,3c-2.84,0-2.24-2.22-2.32-3.9S85.33,84.16,87.36,84.31Z"/>
        <path class="cls-12" d="M177.4,84.32a2.9,2.9,0,0,1,3,3.14c0,2-1,3.45-3.17,3.53-2.5.09-2.21-1.79-2.25-3.4S175,84.23,177.4,84.32Z"/>
        <path class="cls-13" d="M21.85,100.87c-.08-2.33-.2-4.21,2.61-3.9,2.08.23,3.34,1.27,3.36,3.41,0,2.33-1.22,3.52-3.59,3.67C21.22,104.23,22,102.06,21.85,100.87Z"/>
        <path class="cls-14" d="M21.82,86.71c0-1.7-.16-3.58,2.36-3.32a2.91,2.91,0,0,1,2.92,3.28c-.1,1.88-1,3.13-2.94,3.32C21.53,90.23,21.83,88.34,21.82,86.71Z"/>
      </g>
    </g>
  </g>
</svg>
