<svg xmlns="http://www.w3.org/2000/svg" width="85.05mm" height="89.28mm" viewBox="0 0 241.1 253.06">
  <g id="레이어_2" data-name="레이어 2">
    <g id="레이어_1-2" data-name="레이어 1">
      <path d="M241.1,219.2v3a86,86,0,0,1-34.67,24.73c-6.23,2.4-12.73,4.12-19.11,6.14H175.37c-11.71-4-15.61-12.8-15.26-24.35a42.05,42.05,0,0,0-.33-6.44c-.63-5.2-2.09-6.07-6.67-3.38a131.51,131.51,0,0,0-11.88,8.16C110.38,250,76.14,255.14,39.46,245.93,22.5,241.67,9.54,232,3.61,214.7c-7.09-20.73-2.68-38.38,13-51.15a90.65,90.65,0,0,1,32.92-17c20.21-5.67,40.63-10.56,60.89-16A183.76,183.76,0,0,0,129.58,124c1.51-.6,2.42-2.72,3.6-4.13l-1-1.47a54.28,54.28,0,0,0-6.13,1c-14.2,3.83-28.35,7.87-42.58,11.61-14.54,3.81-28.9,8.14-44.32,7.61C5.5,137.39-2.06,113.24.44,90.22c1.32-12.15,12.75-20.38,27-21.35,15.37-1,30.75-1.94,46.12-3.12,5.78-.44,11.52-1.49,17.28-2.26L91,61.76a42.52,42.52,0,0,0-5.65-1c-10.77-.44-21.55-.61-32.3-1.17-9.27-.48-18.66-.94-26.31-7.32-6.49-5.4-11.62-11.79-10.36-20.81C18.85,13.82,39.13-1.68,56.82.15,66.6,1.16,71.59,9,68.36,18.31c-.47,1.34-1,2.66-1.74,4.63,5.51-2.27,10.33-4.28,15.17-6.23,5.06-2,10-4.57,15.26-5.87,5.86-1.45,12.07-2.76,18-2.35,15,1,23.35,9.4,25.51,24.36.67,4.7.73,9.49,1.09,14.53,9.38-1.34,18.53-2.62,27.68-4,28.84-4.27,54.23,17.48,53.73,46.55-.29,16.53-7.3,30.69-19.09,41.89-10.43,9.9-22,18.59-33.08,27.84-1.87,1.57-3.64,3.26-5.46,4.89,2.4-.23,4-1.42,5.68-2.32,7.6-4,14.93-8.79,22.94-11.65,14.83-5.31,29.35,4.17,31.24,19.76a89.37,89.37,0,0,1,.23,15.35c-.51,9.93-1.56,19.83-2,29.76-.36,8,1.87,9.21,9.09,6.13A66.49,66.49,0,0,1,241.1,219.2ZM100.62,150.35l-.46-1a38.76,38.76,0,0,0-4.46.93c-13.5,4.38-27.18,8.27-40.38,13.42C46.8,167,39,172.13,30.88,176.53c-4,2.15-5,5.91-3.77,9.78,1.4,4.38,5.49,3.74,8.85,3,4.31-1,9-1.77,12.64-4,14-8.48,27.63-17.44,41.28-26.41C93.68,156.37,97.05,153.21,100.62,150.35ZM68.21,79.58l-.64-2.32c-5.35.47-10.7.91-16,1.42-7.42.7-14.85,1.29-22.24,2.24-5.05.65-9.63,4.81-8.82,7.91,1.36,5.2,6.14,4.7,9.44,3.69C42.78,88.57,55.46,84,68.21,79.58ZM44.08,29.23c3.5-.47,6.81-.69,10-1.41,5.47-1.23,7.27-7.16,3.68-11.54-2.86-3.49-6.54-5.24-10.93-4.15-5.2,1.28-10.11,3.38-12.09,9-1.13,3.21.37,5.55,3.28,6.74A32.11,32.11,0,0,0,44.08,29.23Z"/>
    </g>
  </g>
</svg>
