<svg xmlns="http://www.w3.org/2000/svg" width="15.08mm" height="19.42mm" viewBox="0 0 42.74 55.06">
  <defs>
    <style>
      .cls-1 {
        fill: #ea581e;
      }
    </style>
  </defs>
  <g id="레이어_2" data-name="레이어 2">
    <g id="레이어_1-2" data-name="레이어 1">
      <path class="cls-1" d="M0,20.45c4.25-7.78,11.29-11.63,19.39-14C25.76,4.53,32.1,2.54,38.47.67,39.31.42,40.62-1,41,1.17c.69,3.4,2,6.72,1.64,11.37-3.21-4.4-6.24-7.35-11.32-5-1.45.66-2.54,1.27-3,2.85-1.2,4.5-2.43,9-3.83,14.13l8.93-2.28c1,3.72-1.68,4.5-3.92,4.82-5,.74-7.54,3.43-8.41,8.42A19.34,19.34,0,0,1,17,43.78c6.82-.65,13.39-1.57,17.64-7.87.49-.72.59-2.2,1.92-1.68s.88,1.82.49,2.88c-1.51,4.13-3.78,7.72-8.11,9.19-8.86,3-17.8,5.79-27,8.76-.54-2.86.52-4.36,2.3-5.73a22.25,22.25,0,0,0,7.82-12.07c2.39-8.4,4.82-16.78,7.27-25.31C8.79,13.4,4,20.57,5.53,32.1,2.43,31.89,2,28.69,0,27.31Z"/>
    </g>
  </g>
</svg>
