<svg xmlns="http://www.w3.org/2000/svg" width="18.9mm" height="19.35mm" viewBox="0 0 53.57 54.85">
  <g id="레이어_2" data-name="레이어 2">
    <g id="레이어_1-2" data-name="레이어 1">
      <g>
        <path d="M53.44,30.54c0,5.91-.07,11.82,0,17.72.05,3-1.23,4.59-4.27,4.76-11.46.65-22.91,1.54-34.38,1.83-2.28.06-5-1.7-6.87-3.37C1.58,45.74-.65,38.53.16,29.87c.69-7.48.23-15.08.1-22.62C.21,4.07,1.33,2.24,4.63,2,14.77,1.33,24.9.4,35.05,0c7.81-.3,12.39,6,17.81,10.16,1.18.92.53,4.33.56,6.59C53.49,21.36,53.44,26,53.44,30.54ZM30.77,13.91v-.08c-5.08.27-10.15.75-15.23.76C12.07,14.6,11,16,11.05,19.3q.24,13.53,0,27.07C11,50.05,12.27,51.33,16,51c9.8-.76,19.63-1.34,29.45-1.81,2.86-.14,4.18-1.09,4.15-4.08q-.14-14.26,0-28.54c0-3-1.06-4.11-4.09-3.8C40.59,13.32,35.67,13.56,30.77,13.91Zm13.6-5.33.51-1.68c-3.54-1.32-7-3.43-10.63-3.76-4.82-.43-9.77.5-14.65.89S10,4.88,5.22,5.31L4.75,6.94c2.81,1.24,5.64,3.57,8.43,3.52C23.58,10.26,34,9.27,44.37,8.58Z"/>
        <path d="M17.2,46c4-5,3.67-21.88.29-24.63,4.51-3.45,9.1-2.86,12.1,1.56a104.74,104.74,0,0,0,7.85,10.58c-.32-4.63,2.47-9.52-2.35-14.3l8.56-1.11c-.46,3.61-1.07,6.76-1.22,9.93-.21,4.25.16,8.54-.17,12.78-.12,1.6-1.37,4.28-2.35,4.39A6.73,6.73,0,0,1,34.7,43.1c-2.75-3.44-4.91-7.34-7.34-11a14.77,14.77,0,0,0-3.14-3.63c1.2,5.18-3.62,11.47,4.7,16.24Z"/>
      </g>
    </g>
  </g>
</svg>
