<svg xmlns="http://www.w3.org/2000/svg" width="87.19mm" height="80.82mm" viewBox="0 0 247.15 229.1">
  <defs>
    <style>
      .cls-1 {
        fill: #fffefe;
      }

      .cls-2 {
        fill: #dc182c;
      }

      .cls-3 {
        fill: #dc3b22;
      }
    </style>
  </defs>
  <g id="레이어_2" data-name="레이어 2">
    <g id="레이어_1-2" data-name="레이어 1">
      <g>
        <path class="cls-1" d="M246.31,26.62l-2.26-.36a9.76,9.76,0,0,0-1.78-.87L142.77.45a12.71,12.71,0,0,0-8.92.82Q69,31.42,4,61.23C0,63.06-.59,65.1.45,69c5,18.38,9.75,36.81,14.61,55.22Q24,158,32.93,191.8c.47,1.78.4,3.64,3.21,3.19,5.86-.94,11.77-1.61,17.64-2.51,6.73-1,6.59-1.2,5.85-8.06-1.1-10.18-1.85-20.4-2.75-30.61-1.1-12.67-1.84-25.39-3.5-38-.65-5,0-7.7,5-9.07,2.07-.56,3.1-1.66,3.68,1.76,4.41,25.79,9.18,51.52,13.66,77.3.49,2.8,1,4,4.21,3.6,12.59-1.69,25.22-3.19,37.86-4.59,3.08-.34,3.86-1.17,3.47-4.53-1.48-13.14-2.45-26.33-3.63-39.5-1.23-13.65-2.25-27.33-3.83-40.93-.59-5.08.58-8,5.64-9.39,2.16-.62,2.76-.68,3.17,1.75,3.24,19.13,6.63,38.24,10,57.35,1.7,9.72,3.33,19.45,5.17,29.14.3,1.56,0,3.95,3.4,3.47,12.9-1.82,25.85-3.3,38.79-4.81,3-.35,4.5-1.09,3.61-4.65-.71-2.84-.42-5.92-.67-8.88-1.16-13.51-2.37-27-3.54-40.52-1.09-12.67-1.88-25.38-3.3-38-1.07-9.59-1.38-9.61,8-11.83,1.18,7,2.31,14,3.55,20.92,4.52,25.45,9.18,50.87,13.48,76.35.6,3.54,1.88,3.88,4.83,3.46,7.35-1.06,14.77-1.66,22.08-2.87,6.25-1,12.72-.71,18.77-3a22.65,22.65,0,0,0,.27-2.45q0-67.83,0-135.66c0-1.11.39-2.34-.59-3.29Z"/>
        <path class="cls-2" d="M244,229.1c-8.58-2.78-17.57-3.38-26.38-4.9-24-4.12-48-8.06-72-12-1.73-.28-2.1-1-2.28-2.52a50,50,0,0,0-1.25-6.78c-.83-3.07-1.28-3.79,3.23-4.26l13.39-1.45c6.49-.72,12.86-2.92,19.76-2.47a35.94,35.94,0,0,0,12.3-1.44c6.2-1.89,12.91-2.15,19.43-3,10.3-1.29,20.61-2.48,30.92-3.71,4.25.44,5.13,2.82,5,6.9-.33,11.85-.12,23.72-.12,35.58Z"/>
        <path class="cls-3" d="M246,229.1c0-11.86-.21-23.73.12-35.58.11-4.08-.77-6.46-5-6.9,4.54-1.41,6.17-.1,6,4.95-.37,12.5-.12,25-.12,37.53Z"/>
        <path class="cls-2" d="M246.73,168.38c-6,2.25-12.52,1.92-18.77,3-7.31,1.21-14.73,1.81-22.08,2.87-2.95.42-4.23.08-4.83-3.46-4.3-25.48-9-50.9-13.48-76.35-1.24-7-2.37-13.94-3.55-20.92-9.37,2.22-9.06,2.24-8,11.83,1.42,12.64,2.21,25.35,3.3,38,1.17,13.51,2.38,27,3.54,40.52.25,3,0,6,.67,8.88.89,3.56-.65,4.3-3.61,4.65-12.94,1.51-25.89,3-38.79,4.81-3.4.48-3.1-1.91-3.4-3.47-1.84-9.69-3.47-19.42-5.17-29.14-3.34-19.11-6.73-38.22-10-57.35-.41-2.43-1-2.37-3.17-1.75-5.06,1.43-6.23,4.31-5.64,9.39,1.58,13.6,2.6,27.28,3.83,40.93,1.18,13.17,2.15,26.36,3.63,39.5.39,3.36-.39,4.19-3.47,4.53-12.64,1.4-25.27,2.9-37.86,4.59-3.24.44-3.72-.8-4.21-3.6-4.48-25.78-9.25-51.51-13.66-77.3-.58-3.42-1.61-2.32-3.68-1.76-5,1.37-5.64,4.12-5,9.07,1.66,12.59,2.4,25.31,3.5,38,.9,10.21,1.65,20.43,2.75,30.61.74,6.86.88,7-5.85,8.06-5.87.9-11.78,1.57-17.64,2.51-2.81.45-2.74-1.41-3.21-3.19Q24,158,15.06,124.17C10.2,105.76,5.42,87.33.45,69-.59,65.1,0,63.06,4,61.23q65-29.74,129.84-60a12.71,12.71,0,0,1,8.92-.82l99.5,24.94a9.76,9.76,0,0,1,1.78.87,1.46,1.46,0,0,0,2.26.36l.1.36c-.13,1.47-.37,2.95-.37,4.43q0,66.33,0,132.67C246,165.53,245.66,167.08,246.73,168.38Z"/>
        <path class="cls-3" d="M246.73,168.38c-1.07-1.3-.69-2.85-.69-4.3q0-66.35,0-132.67c0-1.48.24-3,.37-4.43,1,.95.59,2.18.59,3.29q0,67.83,0,135.66A22.65,22.65,0,0,1,246.73,168.38Z"/>
        <path class="cls-3" d="M246.31,26.62a1.46,1.46,0,0,1-2.26-.36Z"/>
      </g>
    </g>
  </g>
</svg>
