<svg xmlns="http://www.w3.org/2000/svg" width="126.7mm" height="41.84mm" viewBox="0 0 359.14 118.59">
  <defs>
    <style>
      .cls-1 {
        fill: #113f89;
      }
    </style>
  </defs>
  <g id="레이어_2" data-name="레이어 2">
    <g id="레이어_1-2" data-name="레이어 1">
      <path class="cls-1" d="M298.24,79.36a467.52,467.52,0,0,1-68.7,21.9c-45.81,11-92.19,17.57-139.39,17.32-21.86-.11-43.66-1.36-64.65-8.18a64.27,64.27,0,0,1-16.5-8C-1.28,95.33-3.08,85.27,5.28,75.87,12,68.28,20.38,61.92,28.71,56c6.57-4.69,14.18-7.92,22-12.16a14.36,14.36,0,0,1,0,2.52c-1.54,5.94.33,10.42,5.59,13.57a83,83,0,0,1,9.2,5.94c1,.79,1.22,2.86,1.26,4.36,0,.45-2,1.58-2.68,1.3a4.87,4.87,0,0,1-2.72-2.81c-1.13-6-5.72-3.61-8.77-3.37-4,.32-3.3,4.16-2.11,6.2,1.64,2.81,4,6.16,6.84,7.06,3.87,1.25,8.45.79,12.66.4a8,8,0,0,0,7.43-7c.69-4.43,1.29-9.14-3-12.44-2.08-1.62-4.42-2.92-6.65-4.35-1.82-1.16-4-2-5.35-3.57-.78-.88-.33-2.86-.44-4.34,1.51.46,3.19.66,4.48,1.47s2,3.11,3,3.11c2.43,0,4.87-.93,7.3-1.49-.69-2.63-.57-6.17-2.26-7.67-2.51-2.23-6.3-3-10-4.61,8.49-3,17.24-6.33,26.11-9.25,37.12-12.22,75.24-20.07,114-24.68,37-4.4,74.06-6.43,111.06-.19C328.31,6.07,340.85,9,351.43,17c8.76,6.65,10.08,15.79,3.85,25-7,10.4-17.37,16.85-27.77,23.15-5.1,3.09-10.55,5.6-16.07,8.49,0-4.55-.16-8.74.05-12.91.15-3.31-1.2-4.54-4.39-4.32-2,.15-4.05-.24-6,.13-1.38.26-3.37,1.14-3.69,2.18s1,2.67,1.56,4.08c.68,1.83,1.65,3.7,1.68,5.57,0,.86-1.92,2.43-3,2.44s-2.86-1.57-2.9-2.51c-.25-6.15-.22-12.32,0-18.47,0-.91,1.65-2.51,2.48-2.47a4.66,4.66,0,0,1,3.31,2.12c1.76,3.12,6.86,5.45,9,3C311,51,310.92,47,310,44.7c-2.11-4.93-9.72-6.79-17.47-5.06-5.1,1.15-8.08,4.51-8.4,10.35s-.34,11.67-.1,17.48C284.31,75.45,287.37,78,298.24,79.36ZM142.13,63.91l-.51-.08c-.71-4.42-1.33-8.86-2.16-13.27-2.12-11.4-2.15-11.3-14-10.58-3,.18-4.11,1.34-4.14,4.23-.12,10-.24,20-.61,29.94-.16,4.15,2.06,4.51,5.29,4.51s5.43-.6,5.32-4.63c-.19-7.06,0-14.14,0-21.22,1.91,7.13,3.38,14.27,4.57,21.46.59,3.61,2.59,4.56,5.91,4.39,2.95-.15,5.45,0,6-4.09,1-6.69,2.59-13.29,3.93-19.93a111.57,111.57,0,0,1,.82,19.22c-.17,4.78,2.68,4.77,6.13,4.81,3.6,0,4.55-1.52,4.4-4.88-.34-7.48-.3-15-.53-22.45-.4-12.69,2.46-11.17-12-11.35-3.24,0-4.78,1.08-5.22,4.43C144.46,51,143.22,57.42,142.13,63.91Zm122.91-2-.84,0c-1.2-4.13-2.46-8.24-3.6-12.39-2.78-10-2.76-9.88-13.1-9.55-3.5.11-4.56,1.41-4.5,4.79q.25,14.2,0,28.44c-.07,3.61,1.07,5,4.82,5s5.62-.82,5.48-5c-.22-6.74-.06-13.5-.06-20.85,2.18,7.21,4.28,14,6.26,20.79.92,3.17,2.25,5.5,6.15,5a24.37,24.37,0,0,1,5,0c3.34.26,4.82-1,4.77-4.54-.16-9.64-.24-19.3,0-28.94.12-4.51-2.34-4.62-5.65-4.68-3.67-.07-5,1.32-4.81,5C265.25,50.61,265,56.24,265,61.86Zm-31.19-5.7h.07c0-3.83-.18-7.68.05-11.49.27-4.45-2.37-4.7-5.72-4.68s-5.37.53-5.22,4.63c.26,7.15.09,14.32.05,21.48,0,2.26.49,5.41-2.87,5.1-1.22-.11-3-3.19-3.07-5-.37-7.31-.31-14.65-.17-22,.09-4.32-2.65-4.15-5.63-4.24-3.13-.09-5.11.6-5,4.34.14,7-.05,14,.05,21,.15,11.39,5.72,15.91,17,13.94,7.44-1.29,10.06-4.11,10.43-11.6C234,63.82,233.85,60,233.85,56.16ZM98,51.39l1.09.12c1.24,7.87,2.44,15.74,3.72,23.61.91,5.61,5.36,3.09,8.39,3.25.79,0,2.62-2.49,2.44-3.58-1.78-10.65-3.25-21.42-6.13-31.79-1.69-6.07-8-2.12-12.13-2.86-2.37-.42-5.51-.88-6.22,3.09C87.3,53.7,85.28,64.15,83.33,74.61c-.51,2.74.61,3.88,3.47,4,6.63.39,7.43-.17,8.32-6.72C96.06,65.08,97.06,58.23,98,51.39Zm87.22-12c-.67,0-1.34,0-2,0-5,.16-9.34,1.42-11.12,6.71-1.87,5.59-.09,10.26,5.14,13.71,2.64,1.74,5.63,3,8.06,5,1.34,1.07,2,3.11,2.59,4.85.12.35-2.15,2-2.25,1.86a14.43,14.43,0,0,1-3.33-3.93c-2.05-4.33-5.77-2.32-8.7-2.15-.89,0-2.47,3.21-2.26,4.74,1,7.07,7.86,10.81,16.6,9.48,5.12-.78,9.29-2.7,10.66-8.27,1.4-5.76-.29-10-5.69-13.7-2.47-1.68-5.32-2.81-7.7-4.6-1.29-1-2.08-2.72-2.78-4.26-.13-.31,1.2-1.28,1.85-1.94,1.16,1.13,2.12,2.74,3.5,3.3a24.7,24.7,0,0,0,8,1.83c.55,0,1.87-3.12,1.76-4.72C197.18,41.77,193.22,39.39,185.25,39.39Z"/>
    </g>
  </g>
</svg>
