<svg xmlns="http://www.w3.org/2000/svg" width="43.98mm" height="44.09mm" viewBox="0 0 124.67 124.99">
  <defs>
    <style>
      .cls-1 {
        fill: #40bae1;
      }

      .cls-2 {
        fill: #d12857;
      }

      .cls-3 {
        fill: #f3daa8;
      }

      .cls-4 {
        fill: #e79ea2;
      }

      .cls-5 {
        fill: #32ae79;
      }

      .cls-6 {
        fill: #e3ae34;
      }

      .cls-7 {
        fill: #d12757;
      }

      .cls-8 {
        fill: #e3ae35;
      }
    </style>
  </defs>
  <g id="레이어_2" data-name="레이어 2">
    <g id="레이어_1-2" data-name="레이어 1">
      <g>
        <path class="cls-1" d="M0,41.73c4.15-7.33,10.55-9.46,18.68-9,8.55.51,17.14.08,25.71.13,8.41,0,13.87,4.64,14.29,11.9.48,8.29-3.92,13.8-12.82,14.27-11,.57-22.08.31-33.11.08C6.47,59,2.72,54.88,0,49.66Z"/>
        <path class="cls-2" d="M0,75.43c5.37-9,14.48-12.53,24.39-9.74,1.81.51,1.78,1.66,1.79,3,0,3.13.07,6.26,0,9.39C26,85.23,22.47,89.92,16.1,91.47c-5.93,1.45-11.44-1.2-14.82-7.11C.89,83.67.43,83,0,82.37Z"/>
        <path class="cls-3" d="M75.33,125a2.07,2.07,0,0,0-.08-.89,5.06,5.06,0,0,1,7.06,0,2,2,0,0,0,0,.93Z"/>
        <path class="cls-4" d="M48.7,124.19a3.11,3.11,0,0,1-.13.8h-6a1.8,1.8,0,0,0-.08-.89C44.62,122.35,46.67,122.3,48.7,124.19Z"/>
        <path class="cls-5" d="M91.91,29.73c0,4.94.12,9.89,0,14.83-.27,8.92-5.64,14.65-13.44,14.53s-12.86-6.16-12.88-15c0-9.89,0-19.78,0-29.67,0-8.11,5.31-14,12.61-14.29C85.74-.17,91.56,5.57,91.87,13.9,92.07,19.17,91.91,24.45,91.91,29.73Z"/>
        <path class="cls-6" d="M95.15,65.67c5.27,0,10.54-.09,15.81,0,7.66.16,13.52,5.7,13.7,12.77a12.88,12.88,0,0,1-12.54,13.35c-11.35.45-22.75.46-34.09,0A12.83,12.83,0,0,1,65.57,78.4c.25-7.16,6-12.52,13.76-12.7C84.6,65.57,89.87,65.67,95.15,65.67Z"/>
        <path class="cls-7" d="M48.7,124.19l-6.16-.09c-7.23-2.91-9.73-6.53-9.76-14.22,0-9.89,0-19.77,0-29.65,0-8.5,5.27-14.37,12.86-14.54s13.19,5.79,13.24,14.57c0,10.21.09,20.42,0,30.64C58.79,118.09,55.78,121.86,48.7,124.19Z"/>
        <path class="cls-5" d="M98.28,50.46c0-10.13,2.58-14.75,9.49-16.94a12.9,12.9,0,0,1,16.2,9c1.88,7.23-2.27,14.47-9.32,16.06-4.55,1-9.2.47-13.82.55-1.89,0-2.64-.9-2.57-2.76S98.28,52.44,98.28,50.46Z"/>
        <path class="cls-8" d="M82.31,124.06l-7.06,0c-6.87-2.3-9.71-7.26-9.71-14.3,0-11.52-.08-11.52,11.62-11.42,7.94.06,12.94,3.85,14.29,10.82C92.72,115.77,89.57,120.9,82.31,124.06Z"/>
        <path class="cls-1" d="M58.7,17.28c0,8.78,0,8.78-8.9,8.78-9.92,0-14-2.22-16.24-8.76A12.08,12.08,0,0,1,36.91,3.77C40.57.27,45.14-1,50.11.91c5.14,2,8.49,5.56,8.58,11.44C58.72,14,58.7,15.64,58.7,17.28Z"/>
      </g>
    </g>
  </g>
</svg>
