<svg xmlns="http://www.w3.org/2000/svg" width="54.31mm" height="53.82mm" viewBox="0 0 153.96 152.55">
  <defs>
    <style>
      .cls-1 {
        fill: #3592d1;
      }

      .cls-2 {
        fill: #1173bb;
      }

      .cls-3 {
        fill: #09609f;
      }

      .cls-4 {
        fill: #0a609f;
      }

      .cls-5 {
        fill: #3793d1;
      }

      .cls-6 {
        fill: #1872ba;
      }

      .cls-7 {
        fill: #3e9dd8;
      }

      .cls-8 {
        fill: #5891cc;
      }

      .cls-9 {
        fill: #095f9c;
      }

      .cls-10 {
        fill: #075f9c;
      }

      .cls-11 {
        fill: #075e9c;
      }

      .cls-12 {
        fill: #075894;
      }

      .cls-13 {
        fill: #3492d1;
      }
    </style>
  </defs>
  <g id="레이어_2" data-name="레이어 2">
    <g id="레이어_1-2" data-name="레이어 1">
      <g>
        <path class="cls-1" d="M150.77,134.48c-8.93,5.83-18.69,10-28.5,14-5.6,2.41-6,2-5.82-4.08.23-10.23,1.3-20.65-.19-30.67C113.17,93,114.44,72.21,115,51.54c.37-12.6,1.53-25.25,1.56-37.91,0-2.8.27-5.62-.62-8.36-.29-.91-.58-2,.26-2.77,1.16-1.06,2.14.06,3.12.49C123.28,4.71,126.92,7,131,8.38c5.9,2.69,11.8,5.36,17.68,8.09,1.32.61,2.65,1.33,3,3,1.11,2.3,1,4.78,1,7.24q0,49.68,0,99.35C152.77,129,152.72,132,150.77,134.48Z"/>
        <path class="cls-2" d="M105,148.52q-22.77-20.49-45.54-41c-3.67-3.3-7.5-6.46-10.87-10.06-2.08-2.23-3.86-1.8-6-.71a1.84,1.84,0,0,1-.49-1.22c.22-3.22-2.43-4.51-4.38-6.08-4.6-3.69-8.5-8.16-13.2-11.73.3-2.21-1.41-3.19-2.72-4.4C15.62,67.64,9.34,62,3.22,56.24c-4.32-4.08-4.23-6.68,0-10.82,11.12-11,11.13-11,23.55-1.77,5,3.75,10,7.61,15,11.36,1.42,1.06,2.69,2.54,4.77,2.28,6.3,4.35,12.38,9,18.34,13.83,2,1.5,4,3,6,4.39,12.85,9.78,25.66,19.6,38.58,29.28,2.1,1.56,4.51,3,4.05,6.24-.09,10.15,0,20.3-.06,30.44C113.42,148.75,112,149.87,105,148.52Z"/>
        <path class="cls-3" d="M70.52,76c-2.71-.34-4.14-2.63-6.15-4-.57-2.52-2.66-3.63-4.56-4.88A79.27,79.27,0,0,1,47.17,56.91C59.44,44.44,72.91,33.27,85.69,21.34,91.36,16,97.16,10.89,103,5.72c1.82-1.63,3.47-3.53,5.93-4.29.88-.51,1.7-.6,2.36.35-.94,2.63,2.3,3.9,2.08,6.32.42,11.21,0,22.42.22,33.61.41,2.24-.72,3.8-2.38,5C98.56,56.27,86,65.8,73.25,75.15A3.17,3.17,0,0,1,70.52,76Z"/>
        <path class="cls-4" d="M42.54,95.77l.06,1Q31.4,105.38,20.2,114c-3.6,2.78-7,2.5-10.27-.52C7.26,111,4.5,108.6,2,106s-2.69-5.73,0-8.33c7-6.7,14-13.54,21.71-19.49C30.93,82,35.8,88.6,42.08,93.53A1.83,1.83,0,0,1,42.54,95.77Z"/>
        <path class="cls-5" d="M111,2.48l-2.13-1c2.3-2,5-1.62,7.34-.57,5,2.27,9.87,5,14.79,7.52-5.31-.23-9.1-4.37-13.52-5.45.18,14.13,2.09,28.32-1,42.45a22.16,22.16,0,0,0-.42,3.9c-.06,2.15.08,4.3,0,6.44-1.38,28.17,2.11,56.22,2,84.36,0,1.48.38,3.12-.11,4.43-2,5.34.8,5,4.38,4-6.58,4.81-10.3,5.26-15.16,1.85,6.44-2.33,6.41-2.33,6.46-9.72.07-10.39-.18-20.78.12-31.18-.33-21.81-.43-43.62,0-65.43a5.93,5.93,0,0,1,.16-2.65c1.43-4,.68-8.18.71-12.27.06-7.42.25-14.85-.13-22.25a4.35,4.35,0,0,0-.69-1.27C113,4.45,111.68,3.74,111,2.48Z"/>
        <path class="cls-6" d="M114,109.8c1.32,1.91,1,4.09,1,6.21q0,13.3,0,26.61c0,7.3-.54,7.82-7.92,7.71L105,148.52c.22-.24.5-.72.65-.68,7.62,2.1,6.36-3.25,6.36-7.55,0-8.55,0-17.1,0-25.66,0-1.72-.67-3.68,1.13-5A.51.51,0,0,1,114,109.8Z"/>
        <path class="cls-7" d="M150.77,134.48a33.47,33.47,0,0,0,1-6.28q-.11-54.39-.07-108.77l1.09,1.67c.67,1.25.4,2.6.4,3.9q0,51.36,0,102.71c0,1.3.27,2.66-.41,3.89A3.41,3.41,0,0,1,150.77,134.48Z"/>
        <path class="cls-8" d="M152.81,131.6q0-55.24,0-110.5c1.61,1.46,1,3.4,1,5.15q0,50.11,0,100.24C153.84,128.23,154.48,130.17,152.81,131.6Z"/>
        <path class="cls-9" d="M42.54,95.77A192.89,192.89,0,0,0,27.82,82.35a44.77,44.77,0,0,1-4.09-4.17,1.29,1.29,0,0,1,.8-.43A8.11,8.11,0,0,1,29,79.81q6.77,6.12,13.42,12.36C43.53,93.25,45.34,94.44,42.54,95.77Z"/>
        <path class="cls-10" d="M47.17,56.91A138.39,138.39,0,0,1,65.08,70.2c1.11,1,.71,1.64-.71,1.75-5.85-5-13-8.41-17.85-14.66A.56.56,0,0,1,47.17,56.91Z"/>
        <path class="cls-11" d="M114.1,43l-.95.23c-1.74-1.39-1.07-3.35-1.08-5.08-.06-10.57,0-21.14,0-31.71,2.08.86,1-1.52,2-1.88a5.24,5.24,0,0,0,.79,0c1.34,1.4.66,3.14.68,4.71q.11,14.07,0,28.14c0,1.59.58,3.3-.61,4.76Z"/>
        <path class="cls-12" d="M114,4.55c0,1.29.37,3-2,1.88a3.34,3.34,0,0,0-2.11-1.91c-.75-.22-1.87-.43-1.17-1.47.33-.48,1.48-.4,2.26-.57A2.87,2.87,0,0,1,114,4.55Z"/>
        <path class="cls-13" d="M114.86,42.11q0-18.81-.07-37.61c1.28.64,1.22,1.83,1.22,3q0,15.8,0,31.6C116,40.23,116.11,41.43,114.86,42.11Z"/>
      </g>
    </g>
  </g>
</svg>
