<svg xmlns="http://www.w3.org/2000/svg" width="189.35mm" height="130.86mm" viewBox="0 0 536.75 370.94">
  <defs>
    <style>
      .cls-1 {
        fill: #d71819;
      }
    </style>
  </defs>
  <g id="레이어_2" data-name="레이어 2">
    <g id="레이어_1-2" data-name="레이어 1">
      <path class="cls-1" d="M321.57,370.94H225.79c-.58-1.19-1.69-.8-2.61-.82-16.94-.35-33.88-.58-50.82-1-34.36-.91-68.69-2.55-102.79-7.17-30.25-4.09-52.71-24.65-59.52-54.38C7.38,295.86,6.73,283.89,5.85,272,3.61,241.72-.58,211.58.07,181.12c.22-10.63.66-21.23,1.15-31.84C2.39,123.58,4.05,98,8.31,72.53,14.65,34.71,34.59,15,72.37,8.93c21.06-3.37,42.29-4.1,63.52-4.87C181,2.43,226.12-.51,271.32.08c16.94.22,33.87,0,50.81.8,9.78.49,19.61.05,29.4.44Q408.28,3.59,464.8,9.14c25.06,2.48,44.5,13.54,55.79,36.81a87.4,87.4,0,0,1,8.51,29c4.88,46,9.09,92.11,7.18,138.51-1.28,30.86-3.4,61.6-9.25,92s-23.86,49-54,55.2a260.48,260.48,0,0,1-41.48,5.11c-35.66,1.51-71.33,2.81-107,4.23C323.53,370,322.16,369.38,321.57,370.94Zm30.33-185.3c-1.25-.84-1.75-1.24-2.31-1.56q-66.15-37.56-132.27-75.16c-4.38-2.5-4-.13-4,2.9q0,73.69-.05,147.4c0,4.26.78,4.8,4.5,2.66,21.83-12.57,43.77-25,65.67-37.4C306,211.65,328.63,198.83,351.9,185.64Z"/>
    </g>
  </g>
</svg>
